<svg width="32" height="32" viewBox="0 0 32 32" fill="none" xmlns="http://www.w3.org/2000/svg">
<path d="M10.672 2.67953C10.2608 4.85011 9.75811 8.0717 9.48394 11.339C9.00412 17.0967 9.30115 20.9581 9.30115 20.9581L1.19006 28.6579C1.19006 28.6579 0.573157 24.3396 0.253283 19.4729C0.0704976 16.457 0.00195312 13.8066 0.00195312 12.2072C0.00195312 12.1158 0.0476494 12.0244 0.0476494 11.933C0.0476494 11.8188 0.184738 10.7449 1.23575 9.73961C2.37816 8.6429 10.8091 2.03979 10.672 2.67953Z" fill="#1496FF"/>
<path d="M10.672 2.67963C10.2608 4.8502 9.75811 8.07179 9.48393 11.3391C9.48393 11.3391 0.504612 10.2652 0.00195312 12.4358C0.00195312 12.3215 0.16189 10.9964 1.21291 9.99103C2.35531 8.89432 10.8091 2.03988 10.672 2.67963Z" fill="#1284EA"/>
<path d="M0.00200587 11.9102C0.00200587 12.0701 0.00200587 12.2301 0.00200587 12.4128C0.0933985 12.0244 0.253335 11.7502 0.573209 11.3161C1.23581 10.4707 2.30967 10.2423 2.74378 10.1966C4.93721 9.89954 8.18164 9.55682 11.4489 9.46543C17.2295 9.28264 21.0451 9.76245 21.0451 9.76245L29.1562 2.06263C29.1562 2.06263 24.9065 1.26294 20.0627 0.691739C16.8868 0.303321 14.0993 0.0976875 12.5228 0.0062949C12.4085 0.0062949 11.289 -0.130794 10.238 0.874525C9.09557 1.97124 3.29214 7.47764 0.961628 9.69391C-0.0893867 10.6992 0.00200587 11.8188 0.00200587 11.9102Z" fill="#B4DC00"/>
<path d="M28.8593 21.7578C26.6658 22.0548 23.4214 22.4204 20.1541 22.5346C14.3735 22.7174 10.535 22.2376 10.535 22.2376L2.42395 29.9602C2.42395 29.9602 6.7194 30.8056 11.5632 31.354C14.5335 31.6967 17.161 31.8795 18.7604 31.9709C18.8746 31.9709 19.0574 31.8795 19.1717 31.8795C19.2859 31.8795 20.4055 31.6739 21.4565 30.6685C22.5989 29.5718 29.499 21.6892 28.8593 21.7578Z" fill="#6F2DA8"/>
<path d="M28.8593 21.7576C26.6659 22.0547 23.4214 22.4202 20.1541 22.5345C20.1541 22.5345 20.771 31.5595 18.6005 31.9479C18.7147 31.9479 20.1998 31.8794 21.2508 30.8741C22.3933 29.7773 29.499 21.6891 28.8593 21.7576Z" fill="#591F91"/>
<path d="M19.0802 31.9937C18.9202 31.9937 18.7603 31.9709 18.5775 31.9709C18.9888 31.9024 19.263 31.7653 19.6971 31.4454C20.5653 30.8285 20.8395 29.7546 20.9309 29.3205C21.3193 27.1499 21.8448 23.9283 22.0961 20.6611C22.5531 14.9033 22.2789 11.0648 22.2789 11.0648L30.39 3.34216C30.39 3.34216 30.9841 7.63762 31.3268 12.5043C31.5324 15.6802 31.601 18.4905 31.6238 20.0442C31.6238 20.1584 31.7152 21.278 30.6642 22.2833C29.5218 23.38 23.7183 28.9092 21.4107 31.1255C20.314 32.1308 19.1944 31.9937 19.0802 31.9937Z" fill="#73BE28"/>
</svg>
